<mxfile host="app.diagrams.net" agent="Mozilla/5.0 (Windows NT 10.0; Win64; x64) AppleWebKit/537.36 (KHTML, like Gecko) Chrome/127.0.0.0 Safari/537.36" version="24.7.7">
  <diagram name="Page-1" id="n1n_oIiqgTx9lGuUD6-o">
    <mxGraphModel dx="1050" dy="653" grid="1" gridSize="10" guides="1" tooltips="1" connect="1" arrows="1" fold="1" page="1" pageScale="1" pageWidth="850" pageHeight="1100" math="0" shadow="0">
      <root>
        <mxCell id="0" />
        <mxCell id="1" parent="0" />
        <mxCell id="bnVwfu50D03r8birTdj3-2" style="edgeStyle=orthogonalEdgeStyle;rounded=0;orthogonalLoop=1;jettySize=auto;html=1;" edge="1" parent="1" source="bnVwfu50D03r8birTdj3-1">
          <mxGeometry relative="1" as="geometry">
            <mxPoint x="160" y="340" as="targetPoint" />
          </mxGeometry>
        </mxCell>
        <mxCell id="bnVwfu50D03r8birTdj3-1" value="" style="ellipse;whiteSpace=wrap;html=1;" vertex="1" parent="1">
          <mxGeometry x="100" y="100" width="120" height="80" as="geometry" />
        </mxCell>
        <mxCell id="bnVwfu50D03r8birTdj3-5" value="" style="edgeStyle=orthogonalEdgeStyle;rounded=0;orthogonalLoop=1;jettySize=auto;html=1;" edge="1" parent="1" source="bnVwfu50D03r8birTdj3-3" target="bnVwfu50D03r8birTdj3-4">
          <mxGeometry relative="1" as="geometry" />
        </mxCell>
        <mxCell id="bnVwfu50D03r8birTdj3-3" value="" style="whiteSpace=wrap;html=1;aspect=fixed;" vertex="1" parent="1">
          <mxGeometry x="120" y="350" width="80" height="80" as="geometry" />
        </mxCell>
        <mxCell id="bnVwfu50D03r8birTdj3-7" value="" style="edgeStyle=orthogonalEdgeStyle;rounded=0;orthogonalLoop=1;jettySize=auto;html=1;" edge="1" parent="1" source="bnVwfu50D03r8birTdj3-4" target="bnVwfu50D03r8birTdj3-6">
          <mxGeometry relative="1" as="geometry" />
        </mxCell>
        <mxCell id="bnVwfu50D03r8birTdj3-4" value="" style="rhombus;whiteSpace=wrap;html=1;" vertex="1" parent="1">
          <mxGeometry x="280" y="350" width="80" height="80" as="geometry" />
        </mxCell>
        <mxCell id="bnVwfu50D03r8birTdj3-9" value="" style="edgeStyle=orthogonalEdgeStyle;rounded=0;orthogonalLoop=1;jettySize=auto;html=1;" edge="1" parent="1" source="bnVwfu50D03r8birTdj3-6" target="bnVwfu50D03r8birTdj3-8">
          <mxGeometry relative="1" as="geometry" />
        </mxCell>
        <mxCell id="bnVwfu50D03r8birTdj3-6" value="" style="ellipse;whiteSpace=wrap;html=1;" vertex="1" parent="1">
          <mxGeometry x="440" y="350" width="80" height="80" as="geometry" />
        </mxCell>
        <mxCell id="bnVwfu50D03r8birTdj3-11" value="" style="edgeStyle=orthogonalEdgeStyle;rounded=0;orthogonalLoop=1;jettySize=auto;html=1;" edge="1" parent="1" source="bnVwfu50D03r8birTdj3-8" target="bnVwfu50D03r8birTdj3-10">
          <mxGeometry relative="1" as="geometry" />
        </mxCell>
        <mxCell id="bnVwfu50D03r8birTdj3-8" value="" style="whiteSpace=wrap;html=1;" vertex="1" parent="1">
          <mxGeometry x="420" y="200" width="120" height="60" as="geometry" />
        </mxCell>
        <mxCell id="bnVwfu50D03r8birTdj3-13" value="" style="edgeStyle=orthogonalEdgeStyle;rounded=0;orthogonalLoop=1;jettySize=auto;html=1;" edge="1" parent="1" source="bnVwfu50D03r8birTdj3-10" target="bnVwfu50D03r8birTdj3-12">
          <mxGeometry relative="1" as="geometry" />
        </mxCell>
        <mxCell id="bnVwfu50D03r8birTdj3-10" value="" style="whiteSpace=wrap;html=1;" vertex="1" parent="1">
          <mxGeometry x="220" y="200" width="120" height="60" as="geometry" />
        </mxCell>
        <mxCell id="bnVwfu50D03r8birTdj3-15" value="" style="edgeStyle=orthogonalEdgeStyle;rounded=0;orthogonalLoop=1;jettySize=auto;html=1;" edge="1" parent="1" source="bnVwfu50D03r8birTdj3-12" target="bnVwfu50D03r8birTdj3-14">
          <mxGeometry relative="1" as="geometry" />
        </mxCell>
        <mxCell id="bnVwfu50D03r8birTdj3-12" value="" style="rhombus;whiteSpace=wrap;html=1;" vertex="1" parent="1">
          <mxGeometry x="240" y="50" width="80" height="80" as="geometry" />
        </mxCell>
        <mxCell id="bnVwfu50D03r8birTdj3-17" value="" style="edgeStyle=orthogonalEdgeStyle;rounded=0;orthogonalLoop=1;jettySize=auto;html=1;" edge="1" parent="1" source="bnVwfu50D03r8birTdj3-14" target="bnVwfu50D03r8birTdj3-16">
          <mxGeometry relative="1" as="geometry" />
        </mxCell>
        <mxCell id="bnVwfu50D03r8birTdj3-14" value="" style="ellipse;whiteSpace=wrap;html=1;" vertex="1" parent="1">
          <mxGeometry x="400" y="50" width="80" height="80" as="geometry" />
        </mxCell>
        <mxCell id="bnVwfu50D03r8birTdj3-19" value="" style="edgeStyle=orthogonalEdgeStyle;rounded=0;orthogonalLoop=1;jettySize=auto;html=1;" edge="1" parent="1" source="bnVwfu50D03r8birTdj3-16" target="bnVwfu50D03r8birTdj3-18">
          <mxGeometry relative="1" as="geometry" />
        </mxCell>
        <mxCell id="bnVwfu50D03r8birTdj3-16" value="" style="rhombus;whiteSpace=wrap;html=1;" vertex="1" parent="1">
          <mxGeometry x="560" y="50" width="80" height="80" as="geometry" />
        </mxCell>
        <mxCell id="bnVwfu50D03r8birTdj3-21" value="" style="edgeStyle=orthogonalEdgeStyle;rounded=0;orthogonalLoop=1;jettySize=auto;html=1;" edge="1" parent="1" source="bnVwfu50D03r8birTdj3-18" target="bnVwfu50D03r8birTdj3-20">
          <mxGeometry relative="1" as="geometry" />
        </mxCell>
        <mxCell id="bnVwfu50D03r8birTdj3-18" value="" style="whiteSpace=wrap;html=1;" vertex="1" parent="1">
          <mxGeometry x="700" y="60" width="120" height="60" as="geometry" />
        </mxCell>
        <mxCell id="bnVwfu50D03r8birTdj3-20" value="" style="whiteSpace=wrap;html=1;" vertex="1" parent="1">
          <mxGeometry x="700" y="200" width="120" height="60" as="geometry" />
        </mxCell>
      </root>
    </mxGraphModel>
  </diagram>
</mxfile>
